<?xml version="1.0" standalone="no"?>
<!DOCTYPE svg PUBLIC "-//W3C//DTD SVG 20010904//EN"
 "http://www.w3.org/TR/2001/REC-SVG-20010904/DTD/svg10.dtd">
<svg version="1.0" xmlns="http://www.w3.org/2000/svg"
 width="1702.000000pt" height="1702.000000pt" viewBox="0 0 1702.000000 1702.000000"
 preserveAspectRatio="xMidYMid meet">
<metadata>
Created by potrace 1.11, written by Peter Selinger 2001-2013
</metadata>
<g transform="translate(0.000000,1702.000000) scale(0.100000,-0.100000)"
fill="#000000" stroke="none">
<path d="M4896 13164 l-3607 -3608 275 -275 276 -276 -276 -274 -275 -275 245
-245 245 -246 -245 -244 -245 -245 3648 -3648 3649 -3649 3607 3608 3608 3607
-245 246 -245 245 245 244 245 244 -275 276 -275 276 247 247 c136 135 259
259 274 275 l27 29 -3647 3647 -3648 3648 -3608 -3607z m7183 -115 c1964
-1963 3571 -3573 3571 -3577 0 -4 -106 -113 -235 -242 l-235 -235 -3338 3338
-3338 3338 -3295 -3296 -3296 -3295 -219 218 c-120 121 -228 229 -238 241
l-20 22 3529 3529 c1942 1942 3533 3530 3537 3530 4 0 1614 -1607 3577 -3571z
m-275 -825 c1813 -1813 3296 -3299 3296 -3303 0 -3 -92 -98 -205 -211 l-205
-205 -3093 3093 -3093 3093 -3046 -3045 c-1675 -1675 -3050 -3046 -3056 -3046
-8 0 -365 350 -403 396 -11 13 451 479 3242 3270 1790 1790 3257 3254 3261
3254 3 0 1489 -1483 3302 -3296z m-245 -735 c1678 -1678 3051 -3053 3051
-3057 0 -4 -1354 -1361 -3010 -3017 l-3009 -3009 -22 20 c-28 25 -6048 6045
-6073 6073 l-20 22 3009 3009 c1656 1656 3013 3010 3017 3010 4 0 1380 -1373
3057 -3051z m-9437 -2766 l207 -208 -238 -237 -238 -238 -207 206 c-113 113
-206 209 -206 213 0 7 463 471 470 471 3 0 98 -93 212 -207z m13314 -132 c118
-117 214 -216 214 -220 0 -3 -92 -98 -205 -211 l-205 -205 -240 240 -239 239
207 207 207 208 24 -22 c13 -12 120 -118 237 -236z m-9941 -3241 l3091 -3091
3051 3051 3051 3051 236 -236 c130 -130 236 -240 236 -243 0 -9 -6563 -6572
-6571 -6572 -8 0 -6659 6651 -6659 6659 0 7 463 471 470 471 3 0 1396 -1391
3095 -3090z m-274 -826 l3365 -3365 3326 3326 3326 3326 206 -206 c113 -114
206 -209 206 -213 0 -4 -1588 -1595 -3530 -3537 l-3529 -3529 -22 20 c-28 25
-7088 7085 -7113 7113 l-20 22 204 204 c113 113 207 205 210 205 3 0 1520
-1515 3371 -3366z"/>
<path d="M9640 9933 c-391 -59 -734 -274 -935 -588 -107 -168 -190 -402 -212
-600 -11 -100 -8 -410 5 -475 39 -192 76 -301 145 -430 190 -351 533 -592 947
-665 142 -25 377 -14 520 24 313 84 589 298 749 583 48 84 47 138 -3 138 -28
0 -51 -26 -104 -116 -150 -258 -422 -464 -661 -501 -61 -9 -215 -9 -271 0
-176 30 -349 126 -506 282 -176 175 -276 353 -339 604 -33 133 -40 199 -40
401 0 169 3 211 24 331 32 187 113 396 210 544 107 164 319 320 476 351 118
23 244 27 326 10 150 -32 304 -116 425 -232 135 -131 224 -263 314 -464 36
-81 58 -110 85 -110 26 0 32 15 30 85 -1 50 -14 262 -20 345 -4 45 -11 163
-21 320 -6 103 -18 140 -48 140 -27 -1 -51 -19 -59 -45 -4 -11 -34 -49 -67
-85 l-59 -64 -103 51 c-261 129 -396 165 -633 168 -82 1 -161 0 -175 -2z"/>
<path d="M6945 9895 c-178 -33 -344 -121 -471 -251 -195 -200 -235 -450 -113
-702 35 -72 58 -102 133 -177 79 -78 105 -98 196 -143 131 -64 167 -78 415
-162 334 -112 444 -165 551 -263 334 -304 169 -843 -283 -925 -76 -13 -239 -7
-313 13 -250 66 -460 270 -619 601 -95 200 -95 199 -119 202 -35 5 -52 -14
-47 -56 2 -20 6 -82 9 -137 4 -55 8 -127 11 -160 2 -33 7 -100 11 -150 3 -49
7 -106 9 -125 2 -19 6 -69 10 -110 10 -100 25 -144 51 -148 26 -4 46 20 69 82
10 27 30 62 44 78 l27 30 134 -65 c222 -108 366 -145 570 -145 119 -1 227 15
315 45 27 9 52 18 55 18 65 18 203 109 295 196 301 286 345 689 107 989 -126
159 -269 238 -667 373 -299 102 -333 115 -454 175 -181 90 -252 190 -257 364
-4 131 38 237 134 340 54 58 108 90 187 114 65 18 223 26 283 13 181 -38 301
-107 439 -249 77 -79 143 -175 203 -295 35 -70 50 -91 68 -93 34 -5 52 15 47
52 -2 17 -7 51 -10 76 -2 25 -7 56 -9 70 -5 30 -14 97 -21 165 -3 28 -8 64
-10 80 -3 17 -7 53 -10 80 -3 28 -8 61 -10 75 -3 14 -8 43 -11 65 -13 90 -68
88 -104 -4 -7 -18 -24 -46 -37 -62 l-24 -27 -92 43 c-110 52 -225 90 -327 109
-91 18 -271 18 -365 1z"/>
</g>
</svg>
